<?xml version="1.0" encoding="UTF-8" standalone="no"?>
<!DOCTYPE svg PUBLIC "-//W3C//DTD SVG 1.1//EN" "http://www.w3.org/Graphics/SVG/1.1/DTD/svg11.dtd">
<svg width="100%" height="100%" viewBox="0 0 512 512" version="1.1" xmlns="http://www.w3.org/2000/svg" xmlns:xlink="http://www.w3.org/1999/xlink" xml:space="preserve" xmlns:serif="http://www.serif.com/" style="fill-rule:evenodd;clip-rule:evenodd;stroke-linejoin:round;stroke-miterlimit:2;">
    <path d="M512,102.4C512,45.884 466.116,0 409.6,0L102.4,0C45.884,0 0,45.884 0,102.4L0,409.6C0,466.116 45.884,512 102.4,512L409.6,512C466.116,512 512,466.116 512,409.6L512,102.4Z" style="fill:rgb(255,235,59);"/>
    <g transform="matrix(1.21292,0,0,1.21292,15.8534,101.185)">
        <path d="M269.991,114.139C277.472,114.139 283.491,120.158 283.491,127.639C283.491,135.12 277.472,141.139 269.991,141.139L125.991,141.139C118.51,141.139 112.491,135.12 112.491,127.639C112.491,120.158 118.51,114.139 125.991,114.139L269.991,114.139ZM269.991,168.139C277.472,168.139 283.491,174.158 283.491,181.639C283.491,189.12 277.472,195.139 269.991,195.139L125.991,195.139C118.51,195.139 112.491,189.12 112.491,181.639C112.491,174.158 118.51,168.139 125.991,168.139L269.991,168.139ZM305.991,1.639C325.847,1.639 341.991,17.755 341.991,37.639L341.991,217.639C341.991,237.495 325.847,253.639 305.991,253.639L89.991,253.639C70.107,253.639 53.991,237.495 53.991,217.639L53.991,37.639C53.991,17.755 70.107,1.639 89.991,1.639L305.991,1.639ZM305.991,91.639L89.991,91.639L89.991,217.639L305.991,217.639L305.991,91.639ZM299.635,37.639L258.347,37.639C254.354,37.639 252.329,42.476 255.197,45.345L275.785,65.933C277.585,67.733 280.397,67.733 282.197,65.933L302.785,45.345C305.654,42.476 303.629,37.639 299.635,37.639Z" style="fill:rgb(33,33,33);fill-rule:nonzero;"/>
    </g>
</svg>
